<svg height="4096" viewBox="0 0 4096 4096" width="4096" xmlns="http://www.w3.org/2000/svg" xmlns:xlink="http://www.w3.org/1999/xlink"><filter id="a" color-interpolation-filters="sRGB" filterUnits="userSpaceOnUse" height="4096" width="4096" x="0" y="0"><feGaussianBlur stdDeviation="25"/><feOffset dx="-31.69637" dy="67.973084" result="offsetblur"/><feFlood flood-opacity=".75"/><feComposite in2="offsetblur" operator="in"/><feMerge><feMergeNode/><feMergeNode in="SourceGraphic"/></feMerge></filter><linearGradient id="b" gradientUnits="userSpaceOnUse" x1="2743.328526" x2="1083.519379" y1="3419.082068" y2="501.138261"><stop offset="0" stop-color="#031634"/><stop offset="1" stop-color="#48b466"/></linearGradient><linearGradient id="c" gradientUnits="userSpaceOnUse" x1="2633.830629" x2="684.082622" y1="3676.071993" y2="248.415788"><stop offset="0" stop-color="#ff9400"/><stop offset="1" stop-color="#80f"/></linearGradient><g fill-rule="evenodd" filter="url(#a)"><path d="m606 3920h650v-2322l-650-651zm2231-2h650v-2973l-650 650zm-789.823364-1594.667969-1.021363 1.021485-1856.155273-1856.155518 318.198059-318.197998 1538.978577 1538.978516 1538.978637-1538.978516 318.197998 318.197998-1856.155273 1856.155518zm453.823364-1128.332031h-906l-350-350h1606z" fill="url(#b)"/><path d="m2046.155273 2324.353516 1.021363-1.021485 1.021362 1.021485 1856.155273-1856.155518-318.197998-318.197998-1538.978637 1538.978516-1538.978577-1538.978516-318.198059 318.197998zm-1799.586731-1856.155518 1800.608094 1800.608398 1800.608276-1800.608398-261.629639-261.629547-1510.694335 1510.694366c-15.621094 15.620972-40.947632 15.620972-56.568604 0l-1510.694305-1510.69429zm1348.431458 726.802002h906l350-350h-1606zm889.431396-40 270.000245-270h-1412.863037l270 270zm1002.568604 2763h-650v-2323l650-650zm-2231 2h-650v-2973l650 651zm2191-42v-2836.431519l-570 570v2266.431519zm-2231-2263.449341-570-570.877075v2836.326416h570z" fill="url(#c)"/></g></svg>